<?xml version="1.0" encoding="UTF-8"?><svg id="Layer_2" xmlns="http://www.w3.org/2000/svg" viewBox="0 0 379.81 151.13"><defs><style>.cls-1{fill:#ef4623;}.cls-1,.cls-2{stroke-width:0px;}.cls-2{fill:#fff;}</style></defs><g id="Layer_1-2"><path class="cls-2" d="m307.31,51.79c-2.06,0-3.91-.51-5.53-1.53-1.63-1.02-2.91-2.4-3.86-4.15-.95-1.75-1.42-3.72-1.42-5.89s.47-4.14,1.42-5.89c.95-1.75,2.23-3.14,3.86-4.15,1.62-1.02,3.47-1.53,5.53-1.53s3.78.4,5.41,1.21c1.62.81,2.86,1.9,3.71,3.29l-2.42,2.97c-.45-.65-1.03-1.24-1.74-1.78-.71-.54-1.46-.96-2.25-1.27-.79-.31-1.55-.47-2.29-.47-1.36,0-2.56.33-3.62,1-1.06.66-1.9,1.58-2.52,2.73-.62,1.16-.93,2.46-.93,3.9s.32,2.73.98,3.88c.65,1.14,1.51,2.06,2.59,2.73,1.07.68,2.26,1.02,3.56,1.02.76,0,1.51-.13,2.23-.38.72-.25,1.42-.64,2.1-1.14.68-.51,1.31-1.13,1.91-1.87l2.42,2.97c-.9,1.27-2.2,2.32-3.88,3.14-1.68.82-3.43,1.23-5.24,1.23Z"/><path class="cls-2" d="m330.54,51.79c-2.18,0-4.12-.5-5.83-1.51-1.71-1-3.06-2.37-4.05-4.11-.99-1.74-1.48-3.72-1.48-5.96s.49-4.22,1.48-5.96c.99-1.74,2.34-3.11,4.05-4.11,1.71-1,3.65-1.51,5.83-1.51s4.08.5,5.79,1.51c1.71,1,3.06,2.37,4.05,4.11.99,1.74,1.48,3.72,1.48,5.96s-.49,4.22-1.48,5.96c-.99,1.74-2.34,3.11-4.05,4.11-1.71,1-3.64,1.51-5.79,1.51Zm0-3.99c1.33,0,2.52-.33,3.56-1,1.05-.66,1.87-1.57,2.46-2.71.59-1.14.88-2.44.85-3.88.03-1.47-.25-2.78-.85-3.92-.59-1.14-1.41-2.04-2.46-2.69-1.05-.65-2.23-.98-3.56-.98s-2.52.33-3.58,1c-1.06.66-1.89,1.57-2.48,2.71-.59,1.14-.88,2.44-.85,3.88-.03,1.44.25,2.73.85,3.88.59,1.14,1.42,2.05,2.48,2.71,1.06.66,2.25,1,3.58,1Z"/><path class="cls-2" d="m346.53,51.75v-22.63h4.41v4.83l-.81.52c.23-.75.59-1.47,1.08-2.16.49-.69,1.1-1.3,1.82-1.83.72-.53,1.5-.95,2.33-1.27.83-.32,1.69-.47,2.56-.47,1.27,0,2.39.22,3.35.65.96.43,1.75,1.08,2.37,1.94.62.86,1.07,1.94,1.36,3.23l-.68-.17.3-.73c.31-.66.74-1.29,1.29-1.88.55-.59,1.18-1.11,1.89-1.57.71-.46,1.46-.82,2.25-1.08.79-.26,1.57-.39,2.33-.39,1.67,0,3.05.34,4.13,1.03,1.09.69,1.91,1.74,2.46,3.15.55,1.41.83,3.16.83,5.26v13.58h-4.41v-13.32c0-1.29-.16-2.35-.49-3.17-.33-.82-.81-1.43-1.46-1.83-.65-.4-1.48-.6-2.5-.6-.79,0-1.53.14-2.23.41-.69.27-1.29.65-1.8,1.14s-.9,1.06-1.19,1.7c-.28.65-.42,1.36-.42,2.13v13.53h-4.41v-13.4c0-1.18-.17-2.18-.51-3-.34-.82-.83-1.44-1.48-1.87-.65-.43-1.44-.65-2.37-.65-.79,0-1.53.14-2.2.41-.68.27-1.27.65-1.78,1.12s-.9,1.03-1.19,1.68c-.28.65-.42,1.34-.42,2.09v13.62h-4.41Z"/><rect class="cls-2" x="136.72" y="73.13" width="11.13" height="56.72"/><path class="cls-2" d="m164.92,129.85v-56.72h11.24v17.82l-1.08-4.32c.79-2.74,2.14-5.22,4.05-7.45,1.91-2.23,4.11-4,6.59-5.29,2.48-1.3,5.06-1.94,7.72-1.94,1.22,0,2.39.11,3.51.32,1.12.22,2,.47,2.65.76l-2.92,12.1c-.86-.36-1.82-.67-2.86-.92-1.04-.25-2.07-.38-3.08-.38-1.94,0-3.8.38-5.56,1.13-1.77.76-3.31,1.8-4.65,3.13-1.33,1.33-2.4,2.88-3.19,4.65-.79,1.77-1.19,3.69-1.19,5.78v31.33h-11.24Z"/><path class="cls-2" d="m227.9,130.93c-4.68,0-8.95-1.3-12.8-3.89-3.85-2.59-6.93-6.12-9.24-10.59-2.31-4.46-3.46-9.51-3.46-15.12s1.17-10.75,3.51-15.18c2.34-4.43,5.51-7.9,9.51-10.43,4-2.52,8.48-3.78,13.45-3.78,2.95,0,5.65.43,8.1,1.3,2.45.86,4.59,2.07,6.43,3.62,1.84,1.55,3.35,3.33,4.54,5.35,1.19,2.02,1.93,4.18,2.21,6.48l-2.48-.86v-14.69h11.24v56.72h-11.24v-13.5l2.59-.76c-.43,1.94-1.31,3.84-2.65,5.67-1.33,1.84-3.02,3.48-5.08,4.92-2.05,1.44-4.32,2.59-6.81,3.46-2.49.86-5.1,1.3-7.83,1.3Zm2.92-10.26c3.38,0,6.37-.83,8.97-2.48,2.59-1.66,4.63-3.94,6.1-6.86,1.48-2.92,2.21-6.25,2.21-9.99s-.74-6.95-2.21-9.83c-1.48-2.88-3.51-5.15-6.1-6.81-2.59-1.66-5.58-2.48-8.97-2.48s-6.25.83-8.8,2.48c-2.56,1.66-4.57,3.93-6.05,6.81-1.48,2.88-2.21,6.16-2.21,9.83s.74,7.08,2.21,9.99c1.48,2.92,3.49,5.2,6.05,6.86,2.56,1.66,5.49,2.48,8.8,2.48Z"/><path class="cls-2" d="m267.66,151.13l-4.21-8.53c2.81,0,5.13-.49,6.97-1.46,1.84-.97,3.22-2.41,4.16-4.32.93-1.91,1.4-4.27,1.4-7.08v-56.61h11.13v59.31c0,3.67-.81,6.91-2.43,9.72s-3.89,5-6.81,6.59c-2.92,1.58-6.32,2.38-10.21,2.38Z"/><path class="cls-1" d="m281.81,51.79c-2.22,0-3.94-.57-5.15-1.72-1.21-1.14-1.82-2.76-1.82-4.84,0-1.95.62-3.53,1.87-4.74,1.24-1.21,2.94-1.82,5.1-1.82s3.94.57,5.15,1.72c1.21,1.14,1.82,2.76,1.82,4.84,0,1.95-.62,3.53-1.87,4.74-1.25,1.21-2.94,1.82-5.1,1.82Z"/><path class="cls-2" d="m322.97,130.93c-4.03,0-7.55-.94-10.53-2.81-2.99-1.87-5.29-4.5-6.91-7.89-1.62-3.38-2.43-7.42-2.43-12.1v-35h11.13v31.98c0,3.31.52,6.18,1.57,8.59,1.04,2.41,2.56,4.27,4.54,5.56,1.98,1.3,4.38,1.94,7.18,1.94,2.09,0,4-.34,5.73-1.03,1.73-.68,3.22-1.64,4.48-2.86,1.26-1.22,2.25-2.7,2.97-4.43.72-1.73,1.08-3.6,1.08-5.62v-34.14h11.13v56.72h-11.13v-11.88l1.94-1.3c-.86,2.67-2.32,5.08-4.38,7.24s-4.48,3.87-7.29,5.13c-2.81,1.26-5.83,1.89-9.07,1.89Z"/><path class="cls-2" d="m368.67,129.85V62.08h11.13v67.77h-11.13Z"/><path class="cls-2" d="m110.22,17.43c-7.48-2.29-11.26.49-13.14,3.37-1.81,2.78-2.14,6.15-1.1,9.27,3.82,11.4,14.36,27.54,23.24,43.46,10.21,18.29,6.75,48.39-26.5,55.04-33.24,6.65-63.31-7.48-63.31-7.48,0,0,22.41,4.99,45.52-1.8,23.12-6.79,27.39-32.75,6.56-47.19C60.67,57.65,22.55,44.24,15.98,13.92c0,0-10.92,6.72-7.7,22.18,3.23,15.46,16,27.58,25.72,31.91,0,0-14.36-1.78-24.54-13.44,0,0,5.43,28.98,47.9,39.66,0,0-9.62,1.24-26.26-4.23,0,0,5.27,17.4,40.25,17.8,0,0-8.97,2.71-22.41.77-13.43-1.94-26.24-10.38-27.87-24.31,0,0-22.52-12.09-18.27-42.16,0,0-15.33-32.27,25.57-42.1,0,0-14.35,15.71,10.68,33.99,27.1,19.79,44.54,23.41,58.29,35.13,0,0-5.77-14.68-9.23-21.6-3.46-6.92-8.97-25.17,7.43-39.86,15.99-14.32,39.27-3.34,39.62,7.87.02.61-.47,1.11-1.14,1.17-1.32.13-3.59-.36-5.65-4.24,0,0-1.56-2.53-3.63-2.6-2.07-.07.73,4.51.73,4.51,0,0,1.74,5.24-2.42,8.65-.47.38-1.18.43-1.72.11l-4.17-2.72-1.73-.99c-1.7-.97-3.48-1.46-5.22-2"/><path class="cls-1" d="m127.28,29.48c-1.22-1.01-3.92-4.03-1.19-5.94,2.73-1.91,7.37-4.14,8.67-4.64s1.98.11,1.91,1.62-.65,4.53,1.33,8.35c1.98,3.81,4.28,7.05,2.91,11.26-1.37,4.21-2.3,5.4-3.88,3.09-1.58-2.3-3.42-8.49-9.75-13.74Z"/></g></svg>